<?xml version="1.0" ?><svg height="128" id="icons" viewBox="0 0 128 128" width="128" xmlns="http://www.w3.org/2000/svg"><defs><style>.cls-1{fill:#f86464;}.cls-2,.cls-3{fill:none;stroke-linecap:round;stroke-linejoin:round;stroke-width:3px;}.cls-2{stroke:#263357;}.cls-3{stroke:#61c4f2;}</style></defs><title/><path class="cls-1" d="M53.61,82.51l1-7.19L49.5,72.23S34.09,74.29,23.81,92.79a40.82,40.82,0,0,0-3.5,10c-2.79,1.4-4.34,7.58-1.64,11.62A7.6,7.6,0,0,0,30,116.43c1-1,0,0,2.06-1,6.17,3.08,17.47,5.14,32.89,5.14,8.78,0,23.64,0,30.83-5.14,1.75,1,5.9,4.41,8.23,4.11,4.51-.57,9.9-7.58,7.19-12.33-1.53-2.68-2.06-4.11-4.11-6.17-2-4.64-4.32-11.76-8.22-16.44C93.7,78.4,82.6,73.26,78.28,73.26l-4.11,3.08,4.11,7.2,3.08,3.08L75.2,92.79c-3.46.77-7.14.28-9.25-1-2.56,2.24-6.17,2.06-10.28,1l-2.06,2L49.5,86.62Z"/><path class="cls-2" d="M63.72,55.5c-2.91,0-4.38,3.19-4.82,5H69.4c-.44-1.81-1.91-5-5.25-5Z"/><path class="cls-2" d="M64.41,68.64C57.8,68.38,50.93,63.13,47.6,57.9,44,52.29,41.86,42.62,44.34,37.67c6.7-4.35,12.8-9.91,11.15-14.87"/><path class="cls-2" d="M85.92,44.8a9.83,9.83,0,0,0-1-6c-3.8-.58-12.53-2.19-19.47-7A41.88,41.88,0,0,1,54.78,21.14"/><path class="cls-2" d="M64.86,68.64c4.2-.17,8.51-2.35,11.94-5.26"/><path class="cls-2" d="M28.37,74.34a8.85,8.85,0,0,1-2.12-5.75,8.74,8.74,0,0,1,2.3-6"/><path class="cls-2" d="M30.16,53.38a7.12,7.12,0,0,0-2.27,5.22,6.94,6.94,0,0,0,.46,2.5,7.09,7.09,0,0,0,2.8,3.51"/><path class="cls-2" d="M32.64,56.06a6.18,6.18,0,0,1-2.48-2.68,6,6,0,0,1-.63-2.7,6.15,6.15,0,0,1,2.55-5"/><path class="cls-2" d="M33.79,47.29a5.17,5.17,0,0,1-1.71-1.61,5.08,5.08,0,0,1-.92-2.94A5.21,5.21,0,0,1,34.22,38"/><path class="cls-2" d="M35.73,38.88a4.29,4.29,0,0,1,1.35-8.36"/><path class="cls-2" d="M91.5,37.78c1.7-.57,2.6-2.84,2.6-4.73,0-2.37-1.58-3.63-3.95-3.63a31.63,31.63,0,0,0,.65-4.08c0-3.3-3.3-4.4-3.3-4.4a8.51,8.51,0,0,0-1.1-3.3c-1-2-4.78-2-4.78-2C80.89,6.63,60,3.33,54.47,9.93c0,0-6.6,2.2-9.9,6.6-1.87,2.5-1.81,6.61-2.21,6.61-2.2,0-4.41,2.37-4.41,6.6a7.57,7.57,0,0,0,.67,3.13"/><path class="cls-2" d="M105.14,95.2c-3.64-9.37-11-17.61-21.6-20.7L79,73.32"/><path class="cls-2" d="M37.65,117c6.78,2.32,15.67,3.82,27.48,3.78,11,0,19.1-1.34,25.31-3.37"/><path class="cls-2" d="M49.43,73.32,44.92,74.5C34.37,77.58,27,85.79,23.34,95.14"/><line class="cls-2" x1="52.5" x2="58.5" y1="42.5" y2="42.5"/><line class="cls-2" x1="76.5" x2="70.5" y1="42.5" y2="42.5"/><path class="cls-2" d="M73.29,75.48c1.75.87,5.25,8.73,5.25,8.73S90.77,93,105.62,101.69s.88,21.84-6.11,16.6c-4.9-3.67-25.34-26.21-25.34-26.21s-5.25,2.62-11.36-2.62c-3.6-3.09-6.29-5.26-7.9-6.53a3.49,3.49,0,0,1-1.23-3.5l.48-2.19a4,4,0,0,1,4.34-3.12c2.21.23,4.71.48,5.18.48.88,0,5.24,4.37,5.24,4.37"/><path class="cls-2" d="M53.7,82.05c-.91,1.56-1.59,2.84-1.59,2.84S39.35,92.83,24,100.59s-2.27,21.74,5,17C34.12,114.2,56,93,56,93s3.81,2.23,9-.35"/><line class="cls-3" x1="79.78" x2="96.27" y1="52.53" y2="49.11"/><line class="cls-3" x1="79.82" x2="94.21" y1="59.39" y2="65.55"/><line class="cls-3" x1="88.04" x2="96.27" y1="56.3" y2="57.33"/><path class="cls-3" d="M96.63,69.74A8.73,8.73,0,0,0,111.47,67a9.74,9.74,0,0,0,1.35-18.56,7.7,7.7,0,0,0-14.38-3.55"/></svg>