<?xml version="1.0" ?><svg id="icon" viewBox="0 0 512 512" xmlns="http://www.w3.org/2000/svg"><defs><style>.cls-1{fill:#c1e9fa;}.cls-2{fill:#36d39a;}.cls-3{fill:#00c67f;}.cls-4{fill:#dbdbdb;}.cls-5{fill:#c7c5cb;}</style></defs><title/><path class="cls-1" d="M202.137,96.562A167.771,167.771,0,0,0,91.206,221.913h-.062C88.1,238.274,86.6,253.568,88.5,272.633c17.139,142.98,181.684,198.211,281.023,107.726a168.291,168.291,0,0,0,53.987-107.726C435.846,147.4,314.321,58.231,202.137,96.562ZM256,424.3C137.242,389.665,123.068,296.36,123.068,296.36l96.016-46.591a84.367,84.367,0,0,1,73.831,0c35.839,17.444-4.576-2.2,96.016,46.591C388.931,296.36,374.757,389.665,256,424.3Z"/><path class="cls-2" d="M188.147,228.3c-20.9,1.04-29.28,21.94-39.2,19.84a4.052,4.052,0,0,1-3.16-3.03c-2.47-7.95,7.47-29.02,10.49-40.36,3.64-13.55-7.33-5.73-27.67-11.46-7.64-2.16-14.66-9.49-20.46-17.81a168.141,168.141,0,0,1,48.01-55.03c4.44,2.95,8.94,5.67,13.19,8.01,22.99,12.57,43.39,9.43,49.12,16.76,5.73,7.27-10.97,18.8-14.61,32.91-3.7,14.11,16.7,22.99,18.8,32.36C224.747,219.912,209.037,227.252,188.147,228.3Z"/><path class="cls-2" d="M241.907,121.772c-2.06.61-4.62.24-7.73-1.32-8.07-4.01-20.4-13.87-32.04-23.92a164.99,164.99,0,0,1,45.42-8.62C250.177,105.622,249.057,119.642,241.907,121.772Z"/><path class="cls-2" d="M413.087,195.292c-10.97,9.67-23.97,19.35-33.09,23.42-18.31,8.25-26.63,28.41-44.37,42.95-3.33,2.71-6.17,4.19-8.69,4.62l-10.85-5.23c-4.13-5.373-7.268-13.718-11.15-19.85-8.14-13.06,8.81-31.37,16.88-58.05,8.01-26.63-5.73-24.22-34.76-41.42-17.93-10.66-14.54-35.37-9.36-52.63C342.005,97.443,393.284,141.818,413.087,195.292Z"/><path class="cls-3" d="M241.907,121.772l-11.55-32.14a168.623,168.623,0,0,1,17.2-1.72C250.177,105.622,249.057,119.642,241.907,121.772Z"/><path class="cls-3" d="M413.087,195.292c-10.97,9.67-23.97,19.35-33.09,23.42-18.31,8.25-26.63,28.41-44.37,42.95-3.33,2.71-6.17,4.19-8.69,4.62l-10.85-5.23a72.359,72.359,0,0,1-6.41-11.1,30.875,30.875,0,0,1,6.46-8.69c14.83-12.59,47.76-66.01,33.93-92.98-4.36-8.52-7.35-22.57-9.39-37.8C375.358,130.622,401.082,162.874,413.087,195.292Z"/><path class="cls-3" d="M188.147,228.3c-20.9,1.04-29.28,21.94-39.2,19.84a4.052,4.052,0,0,1-3.16-3.03c6.2-29.98,41.78-40.96,39.13-52.66s-6.79-20.01-24.91-26.05c-8.49-2.83-17.13-15.69-23.93-28.56a162.768,162.768,0,0,1,20.08-17.39c4.44,2.95,8.94,5.67,13.19,8.01,22.99,12.57,43.39,9.43,49.12,16.76,5.73,7.27-10.97,18.8-14.61,32.91-3.7,14.11,16.7,22.99,18.8,32.36C224.747,219.912,209.037,227.252,188.147,228.3Z"/><path class="cls-4" d="M120.05,301.546a332.241,332.241,0,0,1-32.84-22.3C63.961,261.144,53.873,246.635,56.372,234.9c2.236-10.51,13.413-16.716,34.169-18.972a6,6,0,0,1,1.3,11.93c-13.909,1.512-22.779,5.078-23.73,9.539-.5,2.369-.085,11.707,26.475,32.39a325.1,325.1,0,0,0,31.508,21.4,6,6,0,0,1-6.041,10.369Z"/><path class="cls-4" d="M383.745,299.383a6,6,0,0,1,2.162-8.2c29.706-17.321,60.322-42.81,57.984-53.786-.951-4.462-9.821-8.027-23.729-9.539a6,6,0,0,1,1.3-11.93c20.756,2.256,31.933,8.462,34.169,18.971,2.5,11.741-7.589,26.25-30.839,44.356a332.241,332.241,0,0,1-32.84,22.3A6,6,0,0,1,383.745,299.383Z"/><path class="cls-4" d="M388.927,296.362S374.757,389.662,256,424.3c-118.75-34.64-132.93-127.94-132.93-127.94l96.02-46.59a84.365,84.365,0,0,1,73.83,0C305.388,255.842,374.729,289.473,388.927,296.362Z"/><path class="cls-5" d="M388.927,296.362S374.757,389.662,256,424.3c-118.75-34.64-132.93-127.94-132.93-127.94C265.027,440.592,388.927,296.362,388.927,296.362Z"/></svg>